<svg xmlns="http://www.w3.org/2000/svg" viewBox="-20.32 -22.86 40.64 45.72" width="100" height="100"><rect x="-17.78" y="-20.32" width="35.56" height="40.64"  stroke="#00031eff" stroke-width="0.254" fill="#80c0ffff" /><polyline points="-3.175,-20.32 -3.175,-17.78"  stroke="#00031eff" stroke-width="0.254" fill="none" /><polyline points="3.175,-20.32 3.175,-17.78"  stroke="#00031eff" stroke-width="0.254" fill="none" /><polyline points="-1.27,-15.875 1.27,-15.875"  stroke="#00031eff" stroke-width="0.254" fill="none" /><path d="M -3.175 -17.78 A 1.9049999999999998 1.9049999999999994 0 0 0 -1.27 -15.875"  stroke="#00031eff" stroke-width="0.254" fill="none" /><path d="M 1.27 -15.875 A 1.9049999999999998 1.9049999999999994 0 0 0 3.175 -17.78"  stroke="#00031eff" stroke-width="0.254" fill="none" /><text x="0" y="10.16" font-size="2" font-family="monospace" font-weight="bold" fill="#333333" text-anchor="middle" dominant-baseline="middle" >NE555</text><text x="0" y="-10.16" font-size="2" font-family="monospace" font-weight="bold" fill="#333333" text-anchor="middle" dominant-baseline="middle" >X</text><line x1="-17.78" y1="-15.24" x2="-20.32" y2="-15.24" stroke="#00031eff" stroke-width="0.254" /><rect x="-20.52" y="-15.44" width="0.4" height="0.4" fill="#00031eff" stroke="none" /><text x="-16.98" y="-16.04" font-size="1.5" font-family="monospace" fill="#00031eff" font-weight="bold" text-anchor="start" dominant-baseline="middle">GND</text><line x1="-17.78" y1="-5.08" x2="-20.32" y2="-5.08" stroke="#00031eff" stroke-width="0.254" /><rect x="-20.52" y="-5.28" width="0.4" height="0.4" fill="#00031eff" stroke="none" /><text x="-16.98" y="-5.88" font-size="1.5" font-family="monospace" fill="#00031eff" font-weight="bold" text-anchor="start" dominant-baseline="middle">TRIG</text><line x1="-17.78" y1="5.08" x2="-20.32" y2="5.08" stroke="#00031eff" stroke-width="0.254" /><rect x="-20.52" y="4.88" width="0.4" height="0.4" fill="#00031eff" stroke="none" /><text x="-16.98" y="4.28" font-size="1.5" font-family="monospace" fill="#00031eff" font-weight="bold" text-anchor="start" dominant-baseline="middle">OUT</text><line x1="-17.78" y1="15.24" x2="-20.32" y2="15.24" stroke="#00031eff" stroke-width="0.254" /><rect x="-20.52" y="15.040000000000001" width="0.4" height="0.4" fill="#00031eff" stroke="none" /><text x="-16.98" y="14.44" font-size="1.5" font-family="monospace" fill="#00031eff" font-weight="bold" text-anchor="start" dominant-baseline="middle">RST</text><line x1="17.78" y1="15.24" x2="20.32" y2="15.24" stroke="#00031eff" stroke-width="0.254" /><rect x="20.12" y="15.040000000000001" width="0.4" height="0.4" fill="#00031eff" stroke="none" /><text x="16.98" y="14.44" font-size="1.5" font-family="monospace" fill="#00031eff" font-weight="bold" text-anchor="end" dominant-baseline="middle">CV</text><line x1="17.78" y1="5.08" x2="20.32" y2="5.08" stroke="#00031eff" stroke-width="0.254" /><rect x="20.12" y="4.88" width="0.4" height="0.4" fill="#00031eff" stroke="none" /><text x="16.98" y="4.28" font-size="1.5" font-family="monospace" fill="#00031eff" font-weight="bold" text-anchor="end" dominant-baseline="middle">THRS</text><line x1="17.78" y1="-5.08" x2="20.32" y2="-5.08" stroke="#00031eff" stroke-width="0.254" /><rect x="20.12" y="-5.28" width="0.4" height="0.4" fill="#00031eff" stroke="none" /><text x="16.98" y="-5.88" font-size="1.5" font-family="monospace" fill="#00031eff" font-weight="bold" text-anchor="end" dominant-baseline="middle">DIS</text><line x1="17.78" y1="-15.24" x2="20.32" y2="-15.24" stroke="#00031eff" stroke-width="0.254" /><rect x="20.12" y="-15.44" width="0.4" height="0.4" fill="#00031eff" stroke="none" /><text x="16.98" y="-16.04" font-size="1.5" font-family="monospace" fill="#00031eff" font-weight="bold" text-anchor="end" dominant-baseline="middle">VCC</text></svg>